<?xml version="1.0" encoding="UTF-8" standalone="no"?>
<!DOCTYPE svg PUBLIC "-//W3C//DTD SVG 1.1//EN" "http://www.w3.org/Graphics/SVG/1.1/DTD/svg11.dtd">
<svg width="100%" height="100%" viewBox="0 0 10 10" version="1.1" xmlns="http://www.w3.org/2000/svg" xmlns:xlink="http://www.w3.org/1999/xlink" xml:space="preserve" xmlns:serif="http://www.serif.com/" style="fill-rule:evenodd;clip-rule:evenodd;stroke-linecap:square;stroke-linejoin:round;stroke-miterlimit:1.5;">
    <g transform="matrix(0.995672,0,0,0.995672,1.69467,-0.0829578)">
        <g transform="matrix(1,0,0,1,0,-0.48191)">
            <path d="M1.151,4.382L1.151,7.756" style="fill:none;stroke:rgb(216,216,216);stroke-width:0.5px;"/>
        </g>
        <g transform="matrix(1,0,0,1,0,-0.48191)">
            <path d="M1.151,7.756L4.524,7.756" style="fill:none;stroke:rgb(216,216,216);stroke-width:0.5px;"/>
        </g>
        <g transform="matrix(1,0,0,1,0,-0.48191)">
            <path d="M4.524,4.382L4.524,7.756" style="fill:none;stroke:rgb(216,216,216);stroke-width:0.5px;"/>
        </g>
        <g transform="matrix(1,0,0,1,0,-0.48191)">
            <path d="M1.151,4.382L4.524,4.382" style="fill:none;stroke:rgb(216,216,216);stroke-width:0.5px;"/>
        </g>
        <path d="M2.115,3.9L2.115,2.936" style="fill:none;stroke:rgb(216,216,216);stroke-width:0.5px;"/>
        <path d="M2.115,2.936L5.488,2.936" style="fill:none;stroke:rgb(216,216,216);stroke-width:0.5px;"/>
        <path d="M5.488,2.936L5.488,6.31" style="fill:none;stroke:rgb(216,216,216);stroke-width:0.5px;"/>
        <path d="M5.488,6.31L4.524,6.31" style="fill:none;stroke:rgb(216,216,216);stroke-width:0.5px;"/>
    </g>
</svg>
